<?xml version="1.0" encoding="utf-8"?>
<!-- Generator: Adobe Illustrator 17.0.0, SVG Export Plug-In . SVG Version: 6.00 Build 0)  -->
<!DOCTYPE svg PUBLIC "-//W3C//DTD SVG 1.1//EN" "http://www.w3.org/Graphics/SVG/1.1/DTD/svg11.dtd">
<svg version="1.1" id="Capa_1" xmlns="http://www.w3.org/2000/svg" xmlns:xlink="http://www.w3.org/1999/xlink" x="0px" y="0px"
	 width="400px" height="316.391px" viewBox="0 0 400 316.391" enable-background="new 0 0 400 316.391" xml:space="preserve">
<text transform="matrix(0.9999 0 0 1 86.2962 310.1729)" fill="#353940" font-family="'OpenSans'" font-size="23.266">Buscador de inmuebles</text>
<polygon fill="#F2CD31" points="1.003,205.059 1.003,268.255 32.595,236.655 "/>
<polygon fill="#DA8D26" points="64.187,205.059 64.187,268.255 32.595,236.655 "/>
<polygon fill="#E7B02B" points="64.187,268.252 1,268.252 32.592,236.655 "/>
<polygon fill="#C33F25" points="132.942,205.059 132.942,268.255 101.35,236.655 "/>
<polygon fill="#DA8D26" points="132.942,268.252 69.755,268.252 101.35,236.655 "/>
<polygon fill="#B8161B" points="139.802,205.059 139.802,268.255 171.397,236.655 "/>
<polygon fill="#693887" points="202.986,205.059 202.986,268.255 171.397,236.655 "/>
<polygon fill="#A01462" points="202.986,268.252 139.802,268.252 171.397,236.655 "/>
<polygon fill="#693887" points="209.849,205.059 209.849,268.255 241.441,236.655 "/>
<polygon fill="#599EC5" points="273.033,205.059 273.033,268.255 241.441,236.655 "/>
<polygon fill="#426EB1" points="273.033,268.252 209.846,268.252 241.441,236.655 "/>
<path fill="#60A769" d="M343.893,214.314c-5.717,5.718-9.254,13.615-9.254,22.341c0,8.729,3.537,16.626,9.254,22.344l22.341-22.344
	L343.893,214.314z"/>
<path fill="#9DBD3A" d="M388.572,258.999l-22.341-22.344l-22.338,22.344c5.711,5.711,13.598,9.249,22.313,9.252h0.05
	C374.971,268.248,382.858,264.711,388.572,258.999z"/>
<path fill="#D2D62A" d="M397.823,236.609c-0.012-8.704-3.543-16.586-9.251-22.294l-22.338,22.341l22.338,22.347
	c5.708-5.711,9.238-13.59,9.251-22.297V236.609z"/>
<path fill="#C4CB31" d="M343.89,214.314l22.341,22.341l22.341-22.341c-5.72-5.718-13.616-9.255-22.338-9.255
	C357.509,205.059,349.607,208.597,343.89,214.314z"/>
<path fill="#77B7B4" d="M307.805,205.059h-27.912v27.869h27.912c7.694,0,13.931-6.241,13.931-13.933
	S315.499,205.059,307.805,205.059z"/>
<path fill="#5FA57E" d="M315.657,235.494h-35.765v32.658h35.765c9.017,0,16.322-7.312,16.322-16.331
	C331.98,242.806,324.675,235.494,315.657,235.494z"/>
<polygon fill="#B8161B" points="132.942,205.059 101.35,236.655 132.942,236.655 "/>
<polygon fill="#B8161B" points="171.693,90.411 234.88,90.411 203.285,122.008 "/>
<polygon fill="#DA8D26" points="234.877,90.411 171.693,90.411 203.285,58.813 "/>
<polygon fill="#B8161B" points="280.556,13.131 234.877,90.411 203.285,58.813 "/>
<polygon fill="#F2CD31" points="126.014,13.131 171.693,90.411 203.285,58.813 "/>
<polygon fill="#C33F25" points="126.014,167.692 171.693,90.411 203.285,122.008 "/>
<polygon fill="#DA8D26" points="280.556,167.692 234.877,90.411 203.285,122.008 "/>
<circle fill="#CD5E25" cx="203.282" cy="27.473" r="14.342"/>
</svg>
