<?xml version="1.0" encoding="utf-8"?>
<!-- Generator: Adobe Illustrator 17.0.0, SVG Export Plug-In . SVG Version: 6.00 Build 0)  -->
<!DOCTYPE svg PUBLIC "-//W3C//DTD SVG 1.1//EN" "http://www.w3.org/Graphics/SVG/1.1/DTD/svg11.dtd">
<svg version="1.1" id="Capa_1" xmlns="http://www.w3.org/2000/svg" xmlns:xlink="http://www.w3.org/1999/xlink" x="0px" y="0px"
	 width="640px" height="474.108px" viewBox="0 0 640 474.108" enable-background="new 0 0 640 474.108" xml:space="preserve">
<text transform="matrix(1.0036 0 0 1 153.2075 455.7295)" fill="#353940" font-family="'OpenSans-Light'" font-size="34.9536">Buscador de inmuebles</text>
<polygon fill="#F2CD31" points="24.593,297.811 24.593,392.753 72.231,345.279 "/>
<polygon fill="#DA8D26" points="119.869,297.811 119.869,392.753 72.231,345.279 "/>
<polygon fill="#E7B02B" points="119.869,392.748 24.588,392.748 72.226,345.279 "/>
<polygon fill="#C33F25" points="223.545,297.811 223.545,392.753 175.907,345.279 "/>
<polygon fill="#DA8D26" points="223.545,392.748 128.264,392.748 175.907,345.279 "/>
<polygon fill="#B8161B" points="233.888,297.811 233.888,392.753 281.531,345.279 "/>
<polygon fill="#693887" points="329.164,297.811 329.164,392.753 281.531,345.279 "/>
<polygon fill="#A01462" points="329.164,392.748 233.888,392.748 281.531,345.279 "/>
<polygon fill="#693887" points="339.513,297.811 339.513,392.753 387.151,345.279 "/>
<polygon fill="#599EC5" points="434.789,297.811 434.789,392.753 387.151,345.279 "/>
<polygon fill="#426EB1" points="434.789,392.748 339.508,392.748 387.151,345.279 "/>
<path fill="#60A769" d="M541.639,311.716c-8.62,8.59-13.954,20.454-13.954,33.564c0,13.114,5.334,24.979,13.954,33.568
	l33.689-33.568L541.639,311.716z"/>
<path fill="#9DBD3A" d="M609.011,378.848l-33.689-33.568l-33.684,33.568c8.611,8.581,20.504,13.895,33.646,13.9h0.075
	C588.502,392.743,600.395,387.429,609.011,378.848z"/>
<path fill="#D2D62A" d="M622.96,345.209c-0.019-13.077-5.343-24.918-13.949-33.494l-33.684,33.564l33.684,33.573
	c8.606-8.58,13.931-20.417,13.949-33.498V345.209z"/>
<path fill="#C4CB31" d="M541.634,311.716l33.689,33.564l33.689-33.564c-8.625-8.59-20.532-13.905-33.684-13.905
	C562.171,297.811,550.255,303.126,541.634,311.716z"/>
<path fill="#77B7B4" d="M487.221,297.811h-42.088v41.868h42.088c11.602,0,21.007-9.376,21.007-20.932
	C508.228,307.191,498.823,297.811,487.221,297.811z"/>
<path fill="#5FA57E" d="M499.062,343.534h-53.93v49.064h53.93c13.597,0,24.612-10.985,24.612-24.534
	C523.675,354.52,512.66,343.534,499.062,343.534z"/>
<polygon fill="#B8161B" points="223.545,297.811 175.907,345.279 223.545,345.279 "/>
<polygon fill="#B8161B" points="281.977,125.569 377.258,125.569 329.615,173.04 "/>
<polygon fill="#DA8D26" points="377.253,125.569 281.977,125.569 329.615,78.098 "/>
<polygon fill="#B8161B" points="446.133,9.468 377.253,125.569 329.615,78.098 "/>
<polygon fill="#F2CD31" points="213.098,9.468 281.977,125.569 329.615,78.098 "/>
<polygon fill="#C33F25" points="213.098,241.673 281.977,125.569 329.615,173.04 "/>
<polygon fill="#DA8D26" points="446.133,241.673 377.253,125.569 329.615,173.04 "/>
<ellipse fill="#CD5E25" cx="329.61" cy="31.015" rx="21.626" ry="21.547"/>
</svg>
