<?xml version="1.0" encoding="utf-8"?>
<!-- Generator: Adobe Illustrator 17.0.0, SVG Export Plug-In . SVG Version: 6.00 Build 0)  -->
<!DOCTYPE svg PUBLIC "-//W3C//DTD SVG 1.1//EN" "http://www.w3.org/Graphics/SVG/1.1/DTD/svg11.dtd">
<svg version="1.1" id="Capa_1" xmlns="http://www.w3.org/2000/svg" xmlns:xlink="http://www.w3.org/1999/xlink" x="0px" y="0px"
	 width="58.407px" height="23.747px" viewBox="0 0 58.407 23.747" enable-background="new 0 0 58.407 23.747" xml:space="preserve">
<text transform="matrix(0.7725 0 0 1 12.3247 22.2503)" fill="#353940" font-family="'OpenSans'" font-size="4.1758">Buscador de inmuebles</text>
<polygon fill="#F2CD31" points="0.496,3.383 0.496,14.726 4.877,9.054 "/>
<polygon fill="#DA8D26" points="9.258,3.383 9.258,14.726 4.877,9.054 "/>
<polygon fill="#E7B02B" points="9.258,14.725 0.496,14.725 4.877,9.054 "/>
<polygon fill="#C33F25" points="18.793,3.383 18.793,14.726 14.412,9.054 "/>
<polygon fill="#DA8D26" points="18.793,14.725 10.03,14.725 14.412,9.054 "/>
<polygon fill="#B8161B" points="19.744,3.383 19.744,14.726 24.125,9.054 "/>
<polygon fill="#693887" points="28.506,3.383 28.506,14.726 24.125,9.054 "/>
<polygon fill="#A01462" points="28.506,14.725 19.744,14.725 24.125,9.054 "/>
<polygon fill="#693887" points="29.458,3.383 29.458,14.726 33.839,9.054 "/>
<polygon fill="#599EC5" points="38.22,3.383 38.22,14.726 33.839,9.054 "/>
<polygon fill="#426EB1" points="38.22,14.725 29.457,14.725 33.839,9.054 "/>
<path fill="#60A769" d="M48.046,5.045c-0.793,1.026-1.283,2.444-1.283,4.01c0,1.567,0.491,2.984,1.283,4.01l3.098-4.01L48.046,5.045
	z"/>
<path fill="#9DBD3A" d="M54.242,13.065l-3.098-4.01l-3.098,4.01c0.792,1.025,1.886,1.66,3.094,1.661h0.007
	C52.356,14.725,53.45,14.09,54.242,13.065z"/>
<path fill="#D2D62A" d="M55.525,9.046c-0.002-1.562-0.491-2.977-1.283-4.001l-3.098,4.01l3.098,4.011
	c0.791-1.025,1.281-2.439,1.283-4.002V9.046z"/>
<path fill="#C4CB31" d="M48.046,5.045l3.098,4.01l3.098-4.01c-0.793-1.026-1.888-1.661-3.098-1.661
	C49.935,3.383,48.839,4.018,48.046,5.045z"/>
<path fill="#77B7B4" d="M43.042,3.383h-3.871v5.002h3.871c1.067,0,1.932-1.12,1.932-2.501S44.109,3.383,43.042,3.383z"/>
<path fill="#5FA57E" d="M44.131,8.846h-4.96v5.861h4.96c1.25,0,2.263-1.312,2.263-2.931C46.394,10.158,45.381,8.846,44.131,8.846z"
	/>
<polygon fill="#B8161B" points="18.793,3.383 14.412,9.054 18.793,9.054 "/>
</svg>
