<?xml version="1.0" encoding="utf-8"?>
<!-- Generator: Adobe Illustrator 17.0.0, SVG Export Plug-In . SVG Version: 6.00 Build 0)  -->
<!DOCTYPE svg PUBLIC "-//W3C//DTD SVG 1.1//EN" "http://www.w3.org/Graphics/SVG/1.1/DTD/svg11.dtd">
<svg version="1.1" id="Capa_1" xmlns="http://www.w3.org/2000/svg" xmlns:xlink="http://www.w3.org/1999/xlink" x="0px" y="0px"
	 width="260px" height="80px" viewBox="0 0 260 80" enable-background="new 0 0 260 80" xml:space="preserve">
<text transform="matrix(1 0 0 1 58.9828 70.7769)" fill="#353940" font-family="'OpenSans'" font-size="14.5919">Buscador de inmuebles</text>
<polygon fill="#DA8D26" points="45.115,4.852 45.115,44.486 25.299,24.668 "/>
<polygon fill="#E7B02B" points="45.115,44.484 5.48,44.484 25.297,24.668 "/>
<polygon fill="#C33F25" points="88.242,4.852 88.242,44.486 68.426,24.668 "/>
<polygon fill="#DA8D26" points="88.242,44.484 48.607,44.484 68.426,24.668 "/>
<polygon fill="#B8161B" points="92.545,4.852 92.545,44.486 112.363,24.668 "/>
<polygon fill="#693887" points="132.178,4.852 132.178,44.486 112.363,24.668 "/>
<polygon fill="#A01462" points="132.178,44.484 92.545,44.484 112.363,24.668 "/>
<polygon fill="#693887" points="136.482,4.852 136.482,44.486 156.299,24.668 "/>
<polygon fill="#599EC5" points="176.115,4.852 176.115,44.486 156.299,24.668 "/>
<polygon fill="#426EB1" points="176.115,44.484 136.48,44.484 156.299,24.668 "/>
<path fill="#60A769" d="M220.562,10.656c-3.586,3.586-5.805,8.539-5.805,14.012c0,5.475,2.219,10.428,5.805,14.014l14.014-14.014
	L220.562,10.656z"/>
<path fill="#9DBD3A" d="M248.588,38.682l-14.014-14.014l-14.012,14.014c3.582,3.582,8.529,5.801,13.996,5.803h0.031
	C240.057,44.482,245.004,42.264,248.588,38.682z"/>
<path fill="#D2D62A" d="M254.391,24.639c-0.008-5.459-2.223-10.402-5.803-13.982l-14.012,14.012l14.012,14.016
	c3.58-3.582,5.795-8.523,5.803-13.984V24.639z"/>
<path fill="#C4CB31" d="M220.56,10.656l14.014,14.012l14.014-14.012C245,7.07,240.047,4.852,234.576,4.852
	C229.103,4.852,224.146,7.07,220.56,10.656z"/>
<path fill="#77B7B4" d="M197.926,4.852h-17.508V22.33h17.508c4.826,0,8.738-3.914,8.738-8.738S202.752,4.852,197.926,4.852z"/>
<path fill="#5FA57E" d="M202.852,23.94h-22.434v20.482h22.434c5.656,0,10.238-4.586,10.238-10.242
	C213.09,28.525,208.508,23.94,202.852,23.94z"/>
<polygon fill="#B8161B" points="88.242,4.852 68.426,24.668 88.242,24.668 "/>
<text transform="matrix(1 0 0 1 58.9828 70.7769)" fill="#353940" font-family="'OpenSans'" font-size="14.5919">Buscador de inmuebles</text>
<polygon fill="#F2CD31" points="5.482,4.852 5.482,44.486 25.299,24.668 "/>
<polygon fill="#DA8D26" points="45.115,4.852 45.115,44.486 25.299,24.668 "/>
<polygon fill="#E7B02B" points="45.115,44.484 5.48,44.484 25.297,24.668 "/>
<polygon fill="#C33F25" points="88.242,4.852 88.242,44.486 68.426,24.668 "/>
<polygon fill="#DA8D26" points="88.242,44.484 48.607,44.484 68.426,24.668 "/>
<polygon fill="#B8161B" points="92.545,4.852 92.545,44.486 112.363,24.668 "/>
<polygon fill="#693887" points="132.178,4.852 132.178,44.486 112.363,24.668 "/>
<polygon fill="#A01462" points="132.178,44.484 92.545,44.484 112.363,24.668 "/>
<polygon fill="#693887" points="136.482,4.852 136.482,44.486 156.299,24.668 "/>
<polygon fill="#599EC5" points="176.115,4.852 176.115,44.486 156.299,24.668 "/>
<polygon fill="#426EB1" points="176.115,44.484 136.48,44.484 156.299,24.668 "/>
<path fill="#60A769" d="M220.562,10.656c-3.586,3.586-5.805,8.539-5.805,14.012c0,5.475,2.219,10.428,5.805,14.014l14.014-14.014
	L220.562,10.656z"/>
<path fill="#9DBD3A" d="M248.588,38.682l-14.014-14.014l-14.012,14.014c3.582,3.582,8.529,5.801,13.996,5.803h0.031
	C240.057,44.482,245.004,42.264,248.588,38.682z"/>
<path fill="#D2D62A" d="M254.391,24.639c-0.008-5.459-2.223-10.402-5.803-13.982l-14.012,14.012l14.012,14.016
	c3.58-3.582,5.795-8.523,5.803-13.984V24.639z"/>
<path fill="#C4CB31" d="M220.56,10.656l14.014,14.012l14.014-14.012C245,7.07,240.047,4.852,234.576,4.852
	C229.103,4.852,224.146,7.07,220.56,10.656z"/>
<path fill="#77B7B4" d="M197.926,4.852h-17.508V22.33h17.508c4.826,0,8.738-3.914,8.738-8.738S202.752,4.852,197.926,4.852z"/>
<path fill="#5FA57E" d="M202.852,23.94h-22.434v20.482h22.434c5.656,0,10.238-4.586,10.238-10.242
	C213.09,28.525,208.508,23.94,202.852,23.94z"/>
<polygon fill="#B8161B" points="88.242,4.852 68.426,24.668 88.242,24.668 "/>
</svg>
