<?xml version="1.0" encoding="utf-8"?>
<!-- Generator: Adobe Illustrator 17.0.0, SVG Export Plug-In . SVG Version: 6.00 Build 0)  -->
<!DOCTYPE svg PUBLIC "-//W3C//DTD SVG 1.1//EN" "http://www.w3.org/Graphics/SVG/1.1/DTD/svg11.dtd">
<svg version="1.1" id="Capa_1" xmlns="http://www.w3.org/2000/svg" xmlns:xlink="http://www.w3.org/1999/xlink" x="0px" y="0px"
	 width="119.845px" height="40.087px" viewBox="0 0 119.845 40.087" enable-background="new 0 0 119.845 40.087"
	 xml:space="preserve">
<text transform="matrix(0.9364 0 0 1 26.1871 37.7621)" fill="#353940" font-family="'OpenSans'" font-size="7.4824">Buscador de inmuebles</text>
<polygon fill="#F2CD31" points="0.497,3.956 0.497,24.28 10.012,14.118 "/>
<polygon fill="#DA8D26" points="19.527,3.956 19.527,24.28 10.012,14.118 "/>
<polygon fill="#E7B02B" points="19.527,24.279 0.496,24.279 10.011,14.118 "/>
<polygon fill="#C33F25" points="40.235,3.956 40.235,24.28 30.72,14.118 "/>
<polygon fill="#DA8D26" points="40.235,24.279 21.204,24.279 30.72,14.118 "/>
<polygon fill="#B8161B" points="42.301,3.956 42.301,24.28 51.817,14.118 "/>
<polygon fill="#693887" points="61.331,3.956 61.331,24.28 51.817,14.118 "/>
<polygon fill="#A01462" points="61.331,24.279 42.301,24.279 51.817,14.118 "/>
<polygon fill="#693887" points="63.398,3.956 63.398,24.28 72.913,14.118 "/>
<polygon fill="#599EC5" points="82.428,3.956 82.428,24.28 72.913,14.118 "/>
<polygon fill="#426EB1" points="82.428,24.279 63.397,24.279 72.913,14.118 "/>
<path fill="#60A769" d="M103.77,6.933c-1.722,1.839-2.787,4.379-2.787,7.185c0,2.807,1.065,5.347,2.787,7.186l6.729-7.186
	L103.77,6.933z"/>
<path fill="#9DBD3A" d="M117.227,21.304l-6.729-7.186l-6.728,7.186c1.72,1.837,4.095,2.975,6.72,2.976h0.015
	C113.13,24.278,115.506,23.14,117.227,21.304z"/>
<path fill="#D2D62A" d="M120.013,14.103c-0.004-2.799-1.067-5.334-2.786-7.17l-6.728,7.185l6.728,7.187
	c1.719-1.837,2.782-4.371,2.786-7.171V14.103z"/>
<path fill="#C4CB31" d="M103.769,6.933l6.729,7.185l6.729-7.185c-1.723-1.839-4.101-2.977-6.728-2.977
	C107.871,3.956,105.491,5.094,103.769,6.933z"/>
<path fill="#77B7B4" d="M92.901,3.956h-8.407v8.963h8.407c2.317,0,4.196-2.007,4.196-4.481S95.218,3.956,92.901,3.956z"/>
<path fill="#5FA57E" d="M95.266,13.744H84.494v10.503h10.772c2.716,0,4.916-2.352,4.916-5.252
	C100.182,16.096,97.982,13.744,95.266,13.744z"/>
<polygon fill="#B8161B" points="40.235,3.956 30.72,14.118 40.235,14.118 "/>
</svg>
