<?xml version="1.0" encoding="utf-8"?>
<!-- Generator: Adobe Illustrator 17.0.0, SVG Export Plug-In . SVG Version: 6.00 Build 0)  -->
<!DOCTYPE svg PUBLIC "-//W3C//DTD SVG 1.1//EN" "http://www.w3.org/Graphics/SVG/1.1/DTD/svg11.dtd">
<svg version="1.1" id="Capa_1" xmlns="http://www.w3.org/2000/svg" xmlns:xlink="http://www.w3.org/1999/xlink" x="0px" y="0px"
	 width="200.683px" height="160.566px" viewBox="0 0 200.683 160.566" enable-background="new 0 0 200.683 160.566"
	 xml:space="preserve">
<text transform="matrix(0.9596 0 0 1 43.5861 156.8351)" fill="#353940" font-family="'OpenSans'" font-size="12.2379">Buscador de inmuebles</text>
<polygon fill="#F2CD31" points="0.527,101.545 0.527,134.786 16.475,118.165 "/>
<polygon fill="#DA8D26" points="32.424,101.545 32.424,134.786 16.475,118.165 "/>
<polygon fill="#E7B02B" points="32.424,134.784 0.525,134.784 16.474,118.165 "/>
<polygon fill="#C33F25" points="67.133,101.545 67.133,134.786 51.184,118.165 "/>
<polygon fill="#DA8D26" points="67.133,134.784 35.234,134.784 51.184,118.165 "/>
<polygon fill="#B8161B" points="70.596,101.545 70.596,134.786 86.546,118.165 "/>
<polygon fill="#693887" points="102.493,101.545 102.493,134.786 86.546,118.165 "/>
<polygon fill="#A01462" points="102.493,134.784 70.596,134.784 86.546,118.165 "/>
<polygon fill="#693887" points="105.957,101.545 105.957,134.786 121.906,118.165 "/>
<polygon fill="#599EC5" points="137.854,101.545 137.854,134.786 121.906,118.165 "/>
<polygon fill="#426EB1" points="137.854,134.784 105.956,134.784 121.906,118.165 "/>
<path fill="#60A769" d="M173.626,106.413c-2.886,3.007-4.672,7.161-4.672,11.751c0,4.591,1.786,8.745,4.672,11.753l11.278-11.753
	L173.626,106.413z"/>
<path fill="#9DBD3A" d="M196.181,129.917l-11.278-11.753l-11.277,11.753c2.883,3.004,6.864,4.865,11.264,4.867h0.025
	C189.315,134.782,193.297,132.922,196.181,129.917z"/>
<path fill="#D2D62A" d="M200.851,118.14c-0.006-4.578-1.789-8.724-4.67-11.727l-11.277,11.751l11.277,11.755
	c2.881-3.004,4.664-7.148,4.67-11.728V118.14z"/>
<path fill="#C4CB31" d="M173.624,106.413l11.278,11.751l11.278-11.751c-2.888-3.007-6.874-4.868-11.277-4.868
	C180.5,101.545,176.51,103.406,173.624,106.413z"/>
<path fill="#77B7B4" d="M155.408,101.545h-14.09v14.659h14.09c3.884,0,7.033-3.283,7.033-7.329
	C162.44,104.829,159.292,101.545,155.408,101.545z"/>
<path fill="#5FA57E" d="M159.372,117.554h-18.055v17.178h18.055c4.552,0,8.24-3.846,8.24-8.59
	C167.612,121.4,163.924,117.554,159.372,117.554z"/>
<polygon fill="#B8161B" points="67.133,101.545 51.184,118.165 67.133,118.165 "/>
<polygon fill="#B8161B" points="86.695,41.24 118.594,41.24 102.644,57.861 "/>
<polygon fill="#DA8D26" points="118.592,41.24 86.695,41.24 102.644,24.62 "/>
<polygon fill="#B8161B" points="141.652,0.591 118.592,41.24 102.644,24.62 "/>
<polygon fill="#F2CD31" points="63.635,0.591 86.695,41.24 102.644,24.62 "/>
<polygon fill="#C33F25" points="63.635,81.89 86.695,41.24 102.644,57.861 "/>
<polygon fill="#DA8D26" points="141.652,81.89 118.592,41.24 102.644,57.861 "/>
<ellipse fill="#CD5E25" cx="102.642" cy="8.135" rx="7.24" ry="7.544"/>
</svg>
