<?xml version="1.0" encoding="utf-8"?>
<!-- Generator: Adobe Illustrator 17.0.0, SVG Export Plug-In . SVG Version: 6.00 Build 0)  -->
<!DOCTYPE svg PUBLIC "-//W3C//DTD SVG 1.1//EN" "http://www.w3.org/Graphics/SVG/1.1/DTD/svg11.dtd">
<svg version="1.1" id="Capa_1" xmlns="http://www.w3.org/2000/svg" xmlns:xlink="http://www.w3.org/1999/xlink" x="0px" y="0px"
	 width="166.667px" height="51.852px" viewBox="0 0 166.667 51.852" enable-background="new 0 0 166.667 51.852"
	 xml:space="preserve">
<text transform="matrix(0.9474 0 0 1 37.1865 48.8628)" fill="#353940" font-family="'OpenSans'" font-size="10.1398">Buscador de inmuebles</text>
<polygon fill="#F2CD31" points="1.961,3.05 1.961,30.592 15.008,16.82 "/>
<polygon fill="#DA8D26" points="28.054,3.05 28.054,30.592 15.008,16.82 "/>
<polygon fill="#E7B02B" points="28.054,30.591 1.96,30.591 15.006,16.82 "/>
<polygon fill="#C33F25" points="56.448,3.05 56.448,30.592 43.401,16.82 "/>
<polygon fill="#DA8D26" points="56.448,30.591 30.353,30.591 43.401,16.82 "/>
<polygon fill="#B8161B" points="59.281,3.05 59.281,30.592 72.328,16.82 "/>
<polygon fill="#693887" points="85.374,3.05 85.374,30.592 72.328,16.82 "/>
<polygon fill="#A01462" points="85.374,30.591 59.281,30.591 72.328,16.82 "/>
<polygon fill="#693887" points="88.208,3.05 88.208,30.592 101.254,16.82 "/>
<polygon fill="#599EC5" points="114.301,3.05 114.301,30.592 101.254,16.82 "/>
<polygon fill="#426EB1" points="114.301,30.591 88.206,30.591 101.254,16.82 "/>
<path fill="#60A769" d="M143.564,7.084c-2.361,2.492-3.822,5.934-3.822,9.737c0,3.804,1.461,7.246,3.822,9.738l9.226-9.738
	L143.564,7.084z"/>
<path fill="#9DBD3A" d="M162.015,26.558l-9.226-9.738l-9.225,9.738c2.358,2.489,5.615,4.031,9.215,4.032h0.021
	C156.398,30.589,159.655,29.048,162.015,26.558z"/>
<path fill="#D2D62A" d="M165.835,16.8c-0.005-3.793-1.463-7.229-3.82-9.716l-9.225,9.737l9.225,9.739
	c2.357-2.489,3.815-5.923,3.82-9.718V16.8z"/>
<path fill="#C4CB31" d="M143.562,7.084l9.226,9.737l9.226-9.737c-2.362-2.492-5.623-4.034-9.225-4.034
	C149.187,3.05,145.923,4.592,143.562,7.084z"/>
<path fill="#77B7B4" d="M128.66,3.05h-11.527v12.146h11.527c3.177,0,5.753-2.72,5.753-6.072S131.838,3.05,128.66,3.05z"/>
<path fill="#5FA57E" d="M131.903,16.314h-14.77v14.233h14.77c3.724,0,6.741-3.187,6.741-7.117
	C138.644,19.501,135.627,16.314,131.903,16.314z"/>
<polygon fill="#B8161B" points="56.448,3.05 43.401,16.82 56.448,16.82 "/>
</svg>
